<svg aria-hidden="true" style="width:0;height:0;position:absolute;overflow:hidden" xmlns="http://www.w3.org/2000/svg"><defs><symbol id="closebtn" viewBox="0 0 32 32"><path d="M16 0C7.178 0 0 7.178 0 16s7.178 16 16 16 16-7.178 16-16S24.822 0 16 0zm0 29.714C8.438 29.714 2.286 23.562 2.286 16S8.438 2.286 16 2.286 29.714 8.438 29.714 16 23.562 29.714 16 29.714z"/><path d="M20.903 11.097a1.14 1.14 0 0 0-1.616 0L16 14.384l-3.287-3.287a1.14 1.14 0 0 0-1.616 0 1.14 1.14 0 0 0 0 1.616L14.384 16l-3.287 3.287a1.143 1.143 0 0 0 .808 1.951h.001c.315 0 .6-.128.807-.335L16 17.616l3.287 3.287a1.14 1.14 0 0 0 1.616 0 1.14 1.14 0 0 0 0-1.616L17.616 16l3.287-3.287a1.138 1.138 0 0 0 0-1.616z"/></symbol><symbol id="app-store" viewBox="0 0 32 32"><path d="M23.667 4A4.333 4.333 0 0 1 28 8.333v15.333a4.333 4.333 0 0 1-4.333 4.333H8.334a4.333 4.333 0 0 1-4.333-4.333V8.333A4.333 4.333 0 0 1 8.334 4h15.333zM12.492 20.339h-2.319l-.089.155-.06.121a1 1 0 0 0 1.709 1.002l.002-.002.076-.113.68-1.163zm5.232-6.974-1.161 1.989 3.544 6.144.075.113a1 1 0 0 0 1.715-.997l.002.007-.06-.123-.669-1.16h1.167l.136-.008c.444-.063.792-.41.854-.849l.001-.005.009-.136-.009-.136a1.002 1.002 0 0 0-.849-.854l-.005-.001-.136-.009h-2.32l-2.293-3.973zm-.04-3.897a.999.999 0 0 0-1.291.244l-.002.002-.076.113-.32.545-.312-.541-.075-.112a1 1 0 0 0-1.162-.318l.007-.002-.135.067-.113.075a1 1 0 0 0-.316 1.163l-.002-.007.067.133.883 1.531-2.908 4.979H9.67l-.136.009a1 1 0 0 0-.006 1.981l.005.001.136.009h8.036l-1.153-2-2.308-.001 3.8-6.503.06-.12a1.001 1.001 0 0 0-.415-1.246l-.005-.003z"/></symbol><symbol id="email" viewBox="0 0 32 32"><path d="M8.424 10.884c2.22 1.519 4.591 2.696 7.022 3.823 4.104-1.49 7.799-3.482 11.498-5.565 1.391-.784 2.788-1.576 4.204-2.362-1.761-1.497-6.908-.721-8.372-.721-4.193.006-8.385 0-12.584-.006-1.213-.072-2.478-.103-3.661.006H5.263c-.849.004-2.022-.069-2.961.241 1.321.841 2.524 1.822 3.742 2.791a42.172 42.172 0 0 0 2.381 1.792zm-1.677 1.008c-1.97-1.43-3.738-3.068-5.832-4.317-.365.984-.167 2.292-.291 3.207-.005.036.006.066.006.096-.38 1.623-.38 3.402-.423 4.971-.043 1.52-.363 3.709-.111 5.6-.023.91-.032 1.866.167 2.666 3.908-3.082 8.063-6.143 12.251-8.815-2.002-.994-3.935-2.08-5.768-3.41zm25.125.386c.066-1.237.236-2.593.026-3.848-3.923 2.177-7.684 4.408-11.716 6.266 2.297 1.92 4.639 3.757 6.938 5.652 1.152.947 2.09 1.746 3.015 2.56l-.133-.115c.344.301.683.607 1.022.916.104-.206.2-.422.275-.662.423-1.331.253-2.924.148-4.403l.044-.979c.117-1.794.287-3.583.381-5.386zm-13.5 3.212c-.556.257-1.457.619-2.369.955l-.356.115c-.342.122-.623.037-.816-.15a57.086 57.086 0 0 1-.432-.203.967.967 0 0 1-.19.159l-.004.002c-4.421 2.765-8.846 6.01-12.957 9.262.36.23.825.369 1.436.376 2.688.033 5.381.012 8.074-.013 4.655.125 9.318.033 13.972.143 1.799.041 3.761-.079 5.121-1.05-3.642-3.315-7.549-6.242-11.312-9.411a.996.996 0 0 1-.164-.18l-.002-.003z"/></symbol><symbol id="facebook" viewBox="0 0 32 32"><path d="M32 16.097c0-8.836-7.164-16-16-16s-16 7.164-16 16c0 7.987 5.851 14.605 13.5 15.805v-11.18H9.437v-4.627H13.5v-3.523c0-4.009 2.389-6.225 6.044-6.225 1.749 0 3.581.313 3.581.313v3.937h-2.019c-1.988 0-2.608 1.233-2.608 2.499v3h4.437l-.709 4.627h-3.728v11.18c7.651-1.201 13.501-7.821 13.501-15.807z"/></symbol><symbol id="google-play" viewBox="0 0 32 32"><path d="m17 14.5 4.2-4.5L4.9 1.2c-.1-.1-.3-.1-.6-.2L17 14.5zm6 6.5 5.9-3.2c.7-.4 1.1-1 1.1-1.8s-.4-1.5-1.1-1.8L23 11l-4.7 5 4.7 5zM2.4 1.9c-.3.3-.4.7-.4 1.1v26c0 .4.1.8.4 1.2L15.6 16 2.4 1.9zM17 17.5 4.3 31c.2 0 .4-.1.6-.2L21.2 22 17 17.5z"/></symbol><symbol id="google-plus" viewBox="0 0 32 32"><path d="M16 0C7.164 0 0 7.163 0 16s7.163 16 16 16 16-7.163 16-16S24.836 0 16 0zm4.018 16c0 4.015-3.266 7.282-7.282 7.282S5.454 20.016 5.454 16s3.266-7.282 7.282-7.282c1.62 0 3.155.521 4.438 1.508l-1.691 2.199a4.466 4.466 0 0 0-2.748-.933c-2.486 0-4.508 2.022-4.508 4.508s2.022 4.508 4.508 4.508a4.515 4.515 0 0 0 4.289-3.121h-4.289v-2.774h7.282V16zm7.666.907h-2.086v2.086h-1.814v-2.086h-2.085v-1.814h2.085v-2.086h1.814v2.086h2.086v1.814z"/></symbol><symbol id="instagram" viewBox="0 0 32 32"><path d="M16 12.818c-1.754 0-3.182 1.428-3.182 3.182s1.428 3.183 3.182 3.183c1.755 0 3.182-1.428 3.182-3.183S17.755 12.818 16 12.818zm0 0c-1.754 0-3.182 1.428-3.182 3.182s1.428 3.183 3.182 3.183c1.755 0 3.182-1.428 3.182-3.183S17.755 12.818 16 12.818zm5.301-5.188H10.699a3.073 3.073 0 0 0-3.069 3.069v10.602a3.073 3.073 0 0 0 3.069 3.069h10.602a3.073 3.073 0 0 0 3.069-3.069V10.699a3.073 3.073 0 0 0-3.069-3.069zM16 21.511c-3.038 0-5.511-2.472-5.511-5.511s2.472-5.511 5.511-5.511 5.511 2.472 5.511 5.511-2.472 5.511-5.511 5.511zm5.688-9.882c-.719 0-1.304-.585-1.304-1.304s.585-1.304 1.304-1.304 1.304.585 1.304 1.304-.585 1.304-1.304 1.304zM16 12.818c-1.754 0-3.182 1.428-3.182 3.182s1.428 3.183 3.182 3.183c1.755 0 3.182-1.428 3.182-3.183S17.755 12.818 16 12.818zm5.301-5.188H10.699a3.073 3.073 0 0 0-3.069 3.069v10.602a3.073 3.073 0 0 0 3.069 3.069h10.602a3.073 3.073 0 0 0 3.069-3.069V10.699a3.073 3.073 0 0 0-3.069-3.069zM16 21.511c-3.038 0-5.511-2.472-5.511-5.511s2.472-5.511 5.511-5.511 5.511 2.472 5.511 5.511-2.472 5.511-5.511 5.511zm5.688-9.882c-.719 0-1.304-.585-1.304-1.304s.585-1.304 1.304-1.304 1.304.585 1.304 1.304-.585 1.304-1.304 1.304zM16 12.818c-1.754 0-3.182 1.428-3.182 3.182s1.428 3.183 3.182 3.183c1.755 0 3.182-1.428 3.182-3.183S17.755 12.818 16 12.818zM0 0v32h32V0H0zm26.699 21.301a5.403 5.403 0 0 1-5.398 5.398H10.699a5.404 5.404 0 0 1-5.398-5.398V10.699a5.404 5.404 0 0 1 5.398-5.398h10.602a5.403 5.403 0 0 1 5.398 5.398v10.602zM21.301 7.63H10.699a3.073 3.073 0 0 0-3.069 3.069v10.602a3.073 3.073 0 0 0 3.069 3.069h10.602a3.073 3.073 0 0 0 3.069-3.069V10.699a3.073 3.073 0 0 0-3.069-3.069zM16 21.511c-3.038 0-5.511-2.472-5.511-5.511s2.472-5.511 5.511-5.511 5.511 2.472 5.511 5.511-2.472 5.511-5.511 5.511zm5.688-9.882c-.719 0-1.304-.585-1.304-1.304s.585-1.304 1.304-1.304 1.304.585 1.304 1.304-.585 1.304-1.304 1.304zM16 12.818c-1.754 0-3.182 1.428-3.182 3.182s1.428 3.183 3.182 3.183c1.755 0 3.182-1.428 3.182-3.183S17.755 12.818 16 12.818zm0 0c-1.754 0-3.182 1.428-3.182 3.182s1.428 3.183 3.182 3.183c1.755 0 3.182-1.428 3.182-3.183S17.755 12.818 16 12.818zm0 0c-1.754 0-3.182 1.428-3.182 3.182s1.428 3.183 3.182 3.183c1.755 0 3.182-1.428 3.182-3.183S17.755 12.818 16 12.818zm5.301-5.188H10.699a3.073 3.073 0 0 0-3.069 3.069v10.602a3.073 3.073 0 0 0 3.069 3.069h10.602a3.073 3.073 0 0 0 3.069-3.069V10.699a3.073 3.073 0 0 0-3.069-3.069zM16 21.511c-3.038 0-5.511-2.472-5.511-5.511s2.472-5.511 5.511-5.511 5.511 2.472 5.511 5.511-2.472 5.511-5.511 5.511zm5.688-9.882c-.719 0-1.304-.585-1.304-1.304s.585-1.304 1.304-1.304 1.304.585 1.304 1.304-.585 1.304-1.304 1.304zM16 12.818c-1.754 0-3.182 1.428-3.182 3.182s1.428 3.183 3.182 3.183c1.755 0 3.182-1.428 3.182-3.183S17.755 12.818 16 12.818zm0 0c-1.754 0-3.182 1.428-3.182 3.182s1.428 3.183 3.182 3.183c1.755 0 3.182-1.428 3.182-3.183S17.755 12.818 16 12.818zm0 0c-1.754 0-3.182 1.428-3.182 3.182s1.428 3.183 3.182 3.183c1.755 0 3.182-1.428 3.182-3.183S17.755 12.818 16 12.818zm5.301-5.188H10.699a3.073 3.073 0 0 0-3.069 3.069v10.602a3.073 3.073 0 0 0 3.069 3.069h10.602a3.073 3.073 0 0 0 3.069-3.069V10.699a3.073 3.073 0 0 0-3.069-3.069zM16 21.511c-3.038 0-5.511-2.472-5.511-5.511s2.472-5.511 5.511-5.511 5.511 2.472 5.511 5.511-2.472 5.511-5.511 5.511zm5.688-9.882c-.719 0-1.304-.585-1.304-1.304s.585-1.304 1.304-1.304 1.304.585 1.304 1.304-.585 1.304-1.304 1.304zM16 12.818c-1.754 0-3.182 1.428-3.182 3.182s1.428 3.183 3.182 3.183c1.755 0 3.182-1.428 3.182-3.183S17.755 12.818 16 12.818z"/></symbol><symbol id="map-location" viewBox="0 0 32 32"><path d="M30.064 13.385h-6.339a.582.582 0 1 0 0 1.164h5.294l1.686 15.704H1.319l1.979-15.704h5.303a.582.582 0 1 0 0-1.164H2.272L0 31.416h32l-1.936-18.031z"/><path d="M10.167 26.269c-.341.16-.688.308-1.032.441a.583.583 0 1 0 .424 1.085l-.004.001c.489-.188.854-.347 1.212-.518l-.105.045a.582.582 0 0 0 .277-.777l.002.003a.58.58 0 0 0-.777-.279l.003-.002zm11.12-4.415a.582.582 0 0 0 .58.558l1.188-.049a.581.581 0 0 0 .555-.581l-.001-.027v.001c-.015-.322-.293-.584-.608-.555l-1.159.048a.582.582 0 0 0-.557.607v-.001zm-3.008-.234a.583.583 0 1 0 .247 1.137l-.004.001a11.55 11.55 0 0 1 1.03-.175l.067-.007a.58.58 0 0 0 .505-.651v.003a.575.575 0 0 0-.652-.505h.003a14.23 14.23 0 0 0-1.197.198zm-5.231 2.912c-.299.226-.608.443-.919.644a.582.582 0 1 0 .636.975l-.002.001a16.5 16.5 0 0 0 1.028-.722l-.042.031a.583.583 0 0 0-.702-.928l.001-.001zm-7.235 3.876c.126.033.254.057.38.072.149.018.298.027.447.027.181 0 .364-.013.546-.036a.582.582 0 1 0-.149-1.154h.003a2.748 2.748 0 0 1-.72.008l.013.001a1.959 1.959 0 0 1-.244-.047l.014.003a.58.58 0 0 0-.708.414l-.001.004a.58.58 0 0 0 .413.707l.004.001zm21.343-9.352a.582.582 0 1 0 1.111.349l.001-.004a2.415 2.415 0 0 0 .11-.7c0-.293-.054-.573-.153-.83l.005.016a.582.582 0 0 0-1.089.408l-.001-.004c.05.135.076.271.076.404l-.002.067a1.28 1.28 0 0 1-.059.304l.003-.009zM5.933 23.847a.577.577 0 0 0 .28-.072l-.003.002c.169-.091.347-.148.531-.168a.98.98 0 0 1 .236.001.578.578 0 0 0 .653-.497v-.003a.582.582 0 0 0-.497-.652H7.13a1.998 1.998 0 0 0-.528-.003l.01-.001c-.356.041-.68.148-.969.309l.013-.007a.583.583 0 0 0 .278 1.093zm19.294-2.845a.583.583 0 1 0 .24 1.139l-.004.001c.491-.101.889-.262 1.205-.486.034-.023.066-.047.098-.071.254-.197.279-.547.081-.802-.196-.253-.583-.285-.836-.087-.199.139-.448.236-.784.305zM5.153 25.244a.58.58 0 0 0-1.121-.307l-.001.004a3.803 3.803 0 0 0-.136 1.018v.002c0 .115.005.23.016.344a.582.582 0 1 0 1.158-.121v.003a2.064 2.064 0 0 1-.011-.216v-.011.001-.005c0-.253.035-.497.099-.73l-.005.019zm20.845-9.069a3.465 3.465 0 0 0-1.412.111l.024-.006a.582.582 0 0 0 .321 1.119l-.004.001a2.24 2.24 0 0 1 .928-.069l-.012-.001a.578.578 0 0 0 .654-.495v-.003a.581.581 0 0 0-.496-.655h-.003zm-10.494 6.49c-.085.051-.179.096-.26.149-.127.083-.251.169-.373.256a.581.581 0 1 0 .687.939l-.002.001c.263-.197.561-.382.873-.542l.035-.016a.578.578 0 0 0 .268-.743l.001.004.015-.013c1.052-1.114 4.598-5.291 6.066-12.248.298-1.411.365-2.765.199-4.024-.5-3.824-2.876-5.846-6.871-5.846s-6.37 2.022-6.871 5.846c-.165 1.26-.098 2.613.2 4.024 1.454 6.892 4.946 11.053 6.032 12.213zm.639-19.621c2.356 0 4.273 1.917 4.273 4.273S18.5 11.59 16.143 11.59 11.87 9.673 11.87 7.317s1.916-4.273 4.273-4.273z"/></symbol><symbol id="mobile" viewBox="0 0 32 32"><path d="M22.406 0H9.593a3.194 3.194 0 0 0-3.194 3.194v25.611A3.194 3.194 0 0 0 9.593 32h12.811a3.195 3.195 0 0 0 3.195-3.194V3.193a3.194 3.194 0 0 0-3.194-3.194zM16 30.4c-1.104 0-2-.715-2-1.6s.896-1.6 2-1.6 2 .715 2 1.6-.896 1.6-2 1.6zm6.4-4.8H9.6V3.2h12.8v22.4z"/></symbol><symbol id="twitter" viewBox="0 0 32 32"><path d="M31.275 5.924c-.419.193-.933.385-1.462.542l-.086.022a6.831 6.831 0 0 0 1.379-2.401l.014-.048a.516.516 0 0 0-.757-.599l.002-.001a11.92 11.92 0 0 1-3.519 1.407l-.082.016a6.903 6.903 0 0 0-4.808-1.96c-3.788 0-6.87 3.082-6.87 6.869 0 .298.019.595.056.888A17.59 17.59 0 0 1 3.071 4.255a.516.516 0 0 0-.845.064l-.001.002a6.862 6.862 0 0 0-.93 3.454c0 1.655.591 3.226 1.635 4.453a5.775 5.775 0 0 1-.949-.426l.029.015a.516.516 0 0 0-.767.439v.001l-.001.092a6.892 6.892 0 0 0 3.363 5.907 5.816 5.816 0 0 1-.56-.082l.038.006a.516.516 0 0 0-.587.668l-.001-.004a6.867 6.867 0 0 0 5.032 4.604 12.151 12.151 0 0 1-6.496 1.854h-.002c-.512 0-1.017-.031-1.513-.091l.06.006a.516.516 0 0 0-.342.945l.002.001a18.525 18.525 0 0 0 10.018 2.936c6.994 0 11.369-3.298 13.808-6.065 3.041-3.45 4.785-8.016 4.785-12.528 0-.188-.003-.379-.009-.569a13.345 13.345 0 0 0 3.073-3.255.516.516 0 0 0-.641-.757l.003-.001z"/></symbol><symbol id="youtube" viewBox="0 0 32 32"><path d="M30.753 6.673C29.598 5.3 27.465 4.74 23.392 4.74H8.607c-4.166 0-6.335.596-7.486 2.058C-.001 8.223-.001 10.323-.001 13.23v5.54c0 5.631 1.331 8.49 8.608 8.49h14.785c3.532 0 5.489-.494 6.755-1.706 1.298-1.243 1.852-3.272 1.852-6.784v-5.54c0-3.065-.087-5.178-1.247-6.557zM20.544 16.765l-6.714 3.509a1.032 1.032 0 0 1-1.51-.914v-6.996a1.032 1.032 0 0 1 1.513-.913l-.006-.003 6.714 3.486a1.03 1.03 0 0 1 .008 1.828l-.006.003z"/></symbol></defs></svg>